<svg xmlns="http://www.w3.org/2000/svg" width="302" height="304"><path fill="#1832CE" d="M185.438 25.688c5.428 4.898 9.987 10.608 11.125 17.937-.718 4.308-2.52 5.333-5.563 8.375-.72 2.246-1.127 4.451-1.531 6.773-.638 3.03-1.956 5.544-3.469 8.227l2.5.563C198.619 71.718 203.38 80.607 208 90c9.822-9.524 15.738-16.396 16.055-30.426A253 253 0 0 0 224 54h4l2 2 1.375-2.875C233 50 233 50 235 48h4c3.662 7.567 3.422 14.48 1.016 22.387-1.214 3.122-2.817 5.651-4.703 8.402-1.615 2.72-2.614 5.487-3.688 8.461-3.714 10.027-9.176 19.967-16.625 27.75h-2v2c-3.182 1.591-5.458 1.337-9 1-3.204-1.346-6.067-3.146-9-5l-2.703-1.645C186.223 107.598 180.542 103.502 175 99l-.82 2.27c-1.118 2.587-2.222 4.305-4.055 6.418l-1.492 1.761c-1.755 1.667-3.484 2.476-5.633 3.551-.805 2.05-.805 2.05-1 4l2.52 1.176c3.95 2.07 7.518 4.46 11.167 7.011l2.114 1.465a629 629 0 0 1 15.16 10.887c1.968 1.491 1.968 1.491 4.039 2.461v2l1.672.707c2.94 1.633 5.119 3.686 7.578 5.98 3.227 3.002 6.478 5.94 9.875 8.75 9.796 8.57 18.853 20.538 20.21 33.86.148 13.026-3.37 21.255-12.335 30.703-7.514 7.134-15.928 12.165-25 17l-2.14 1.176C184.432 246.74 167.141 255 153 255v-2l2.816-1.39c7.817-3.836 7.817-3.836 15.434-8.048C174 242 174 242 176 242l1-3a259 259 0 0 1 5-3c8.378-6.034 13.76-14.467 16.688-24.312 1.477-12.71-1.7-22.992-8.688-33.688a86 86 0 0 0-4-4l-.96 1.625c-2.463 4.134-4.944 8.246-7.56 12.285-7.364 11.413-12.184 20.268-10.164 34.285.964 4.426 2.74 8.075 5.075 11.946.609 1.859.609 1.859-.282 4.093L171 240h-6v-2l-1.687-.187c-4.58-1.61-6.92-5.013-9-9.25-2.246-4.313-5.93-5.911-10.168-8.008C142 219 142 219 141.137 216.445 141 214 141 214 142 212h2l1-3 1.93-.937c3.371-1.73 3.923-4.34 5.21-7.77 1.043-3.993 1.394-7.878 1.735-11.98.887-10.45 3.753-19.817 10.125-28.313l-20-3c-3.086 7.642-6.151 15.289-9.062 23l-.761 2.011c-1.216 3.257-2.364 6.517-3.384 9.84-4.135 13.36-10.937 24.243-18.936 35.557-6.473 9.172-10.823 16.766-9.341 28.264.816 3.922 2.684 7.008 4.734 10.39C108 268 108 268 107 273l-11-2-1-3h-2a82 82 0 0 1-2.625-4.687C87.365 258.082 84.279 255.7 79 253l-3-2c.125-2.25.125-2.25 1-5 5.081-4 5.081-4 8-4v-3h2c1.45-5.336 2.858-10.637 3.586-16.125 1.24-9.098 3.261-15.494 8.574-23.043 2.995-4.61 4.036-9.447 5.153-14.77 1.134-5.064 2.562-9.914 4.25-14.812 4.887-12.915 4.887-12.915 3.574-26.164-1.006-1.72-2.07-3.404-3.137-5.086-1.913-5.1-1.26-10.803 0-16l-2.562-.75c-3.822-1.39-6.957-3.161-10.438-5.25l.07 2.379c.103 5.969-.024 10.995-2.07 16.621l-4-2-1.137 1.934-1.55 2.504c-.5.823-.998 1.647-1.512 2.496-2.182 2.503-3.556 2.762-6.801 3.066-2.774-5.548-1.145-12.112.693-17.722.657-1.894 1.337-3.78 2.018-5.665C82.966 117.096 84.01 113.6 85 110l-2.16-1.504C73.56 101.915 67.097 96.194 62 86c-.52-4.737-.526-8.78 1.375-13.187C79.361 55.685 107.814 51.883 130 49c2-.04 4-.055 6 0v4l-1.887.707c-7.22 2.85-14.1 6.222-20.988 9.793l-2.737 1.402C105.434 67.5 100.982 70.038 97 74c-.668 3.628-.668 3.628 0 7l2 2 1.004-1.828c3.164-4.917 5.69-7.493 11.5-8.93q2.002-.43 4.006-.854c4.83-1.062 7.576-2.459 11.017-5.927 3.405-3.378 7.082-5.36 11.91-5.711L141 60l1 2 1.938-1.25c3.272-1.87 6.6-3.332 10.074-4.785 2.152-.91 2.152-.91 3.988-2.965.648-2.57.648-2.57 1-5h-4l1-6 3-1-.437-2.437c.651-5.31 3.637-8.888 7.437-12.563 6.119-3.169 13.285-3.333 19.438-.312M207 91l1 2Z"/><path fill="#0092FF" d="M160 117c7.322 1.302 12.182 5.584 18 10a849 849 0 0 0 7.375 5.313l1.766 1.273c2.539 1.82 5.06 3.53 7.773 5.082L197 140v2l1.672.707c2.94 1.633 5.119 3.686 7.578 5.98 3.227 3.002 6.478 5.94 9.875 8.75 9.796 8.57 18.853 20.538 20.21 33.86.148 13.026-3.37 21.255-12.335 30.703-7.514 7.134-15.928 12.165-25 17l-2.14 1.176C184.432 246.74 167.141 255 153 255v-2l2.816-1.39c7.817-3.836 7.817-3.836 15.434-8.048C174 242 174 242 176 242l1-3a259 259 0 0 1 5-3c8.378-6.034 13.76-14.467 16.688-24.312 1.535-13.204-2.001-24.533-9.867-35.303-1.226-1.79-2.14-3.322-2.821-5.385.721-2.997 1.448-5.1 2.75-7.812 3.172-7.419 4.497-13.2 2.5-21.188-1.52-2.43-2.67-2.823-5.25-4l-2.147-1.006a2540 2540 0 0 0-7.54-3.431l-2.608-1.198c-5.486-2.484-10.96-4.555-16.705-6.365zM136 49v4l-1.887.707c-7.22 2.85-14.1 6.222-20.988 9.793l-2.737 1.402C105.43 67.502 100.996 70.05 97 74c-.662 4.116-.395 6.227 1.5 9.938L100 86l-2.125 3.25c-3.37 5.376-6.1 11.052-8.875 16.75q-.996 2.002-2 4c-9.68-3.52-19.66-12.226-24.23-21.496-1.647-5.356-1.616-10.543.605-15.692C79.306 55.744 113.328 48.374 136 49"/><path fill="#1E373C" d="M185.438 25.688c5.428 4.898 9.987 10.608 11.125 17.937-.718 4.308-2.52 5.333-5.563 8.375-.72 2.246-1.127 4.451-1.531 6.773-.638 3.03-1.956 5.544-3.469 8.227l2.5.563C198.619 71.718 203.38 80.607 208 90c9.822-9.524 15.738-16.396 16.055-30.426A253 253 0 0 0 224 54h4l2 2 1.375-2.875C233 50 233 50 235 48h4c3.662 7.567 3.422 14.48 1.016 22.387-1.214 3.122-2.817 5.651-4.703 8.402-1.615 2.72-2.614 5.487-3.688 8.461-3.714 10.027-9.176 19.967-16.625 27.75h-2v2c-3.182 1.591-5.458 1.337-9 1-3.204-1.346-6.067-3.146-9-5l-2.703-1.645C186.223 107.598 180.542 103.502 175 99l-.82 2.27c-1.118 2.587-2.222 4.305-4.055 6.418l-1.492 1.761C167 111 167 111 165.008 111.793c-3.118 1.874-3.842 4.55-5.258 7.832l-1.578 3.602L157 126c-5.75-.75-5.75-.75-8-3h7l1.102-2.703C161.833 109.28 161.833 109.28 168 106c2.949-2.932 5.373-6.154 7-10 3.173 1.398 5.19 3.055 7.625 5.5 4.495 4.082 9.368 7.082 14.625 10.063l2.366 1.374c4.346 2.412 4.346 2.412 9.185 3.083 8.056-3.735 12.44-13.47 16.199-21.02l1.41-2.676c1.926-3.7 3.679-7.21 4.715-11.261.91-3.187 1.539-3.913 3.875-6.063 4.91-7.744 4.267-16.269 3-25-3.647 2.268-4.679 4.064-5.75 8.188l-.734 2.73L231 63h-2l-2-6 .105 2.09c.2 6.903.09 14.133-4.585 19.66C221 80 221 80 219 80c-.235.531-.47 1.062-.71 1.61-1.677 3.108-3.775 5.844-5.915 8.64l-1.273 1.68A1462 1462 0 0 1 208 96c-2.2-2.69-3.395-4.833-4.25-8.187-2.3-7.196-6.573-12.862-13.125-16.688-4.382-2.18-8.931-3.76-13.625-5.125v-1l3.313-.125c3.845-.478 3.845-.478 5.5-3.5 1.233-3.369 1.233-3.369 2.125-6.875C189 51 189 51 191.188 48c2.092-2.897 2.092-2.897 1.875-6.375C191.35 35.787 188.468 30.099 183 27c-5.194-1.731-9.324-1.821-14.187.563-5.06 4.384-8.064 8.919-9.813 15.437h-2v3l3 1c.813 2.125.813 2.125 1 5-3.644 6.032-8.761 8.134-15 11-5.996 2.975-9.828 5.893-12.25 12.313L133 78h-1c.276-6.205 1.106-10.102 5-15-5.705 1.934-10.32 3.75-14.27 8.54-2.383 2.012-4.56 2.25-7.605 2.835C110.019 75.551 107.251 76.7 104 81l-1.812 2.313L101 85l-2-1c2.58-5.262 4.916-9.213 10.559-11.344 1.975-.493 3.957-.91 5.951-1.32 4.854-1.028 7.565-2.396 11.017-5.875 3.405-3.378 7.082-5.36 11.91-5.711L141 60l1 2 1.938-1.25c3.272-1.87 6.6-3.332 10.074-4.785 2.152-.91 2.152-.91 3.988-2.965.648-2.57.648-2.57 1-5h-4l1-6 3-1-.437-2.437c.651-5.31 3.637-8.888 7.437-12.563 6.119-3.169 13.285-3.333 19.438-.312M207 91l1 2Z"/><path fill="#1D363A" d="M110 123c1.039 3.117.982 4.948.813 8.188-.076 5.71 1.23 8.972 4.187 13.812l1 1c.473 10.824-3.599 20.92-7 31-1.626 4.946-3.03 9.413-3.312 14.625-.384 4.557-2.313 6.853-5.137 10.324-5.387 7.124-6.541 16.15-7.981 24.743-1.171 6.59-2.813 12.611-7.71 17.402l-2.11 1.406-2.14 1.469L79 248c1.427 3.559 2.95 4.818 6.25 6.688 4.482 2.815 6.692 5.854 9.414 10.32 1.74 2.594 3.439 3.848 6.336 4.992h4c-.673-3.07-1.729-5.756-3-8.625-3.028-7.643-4.056-13.475-1.062-21.312 2.39-5.164 5.375-9.57 8.812-14.086 9.399-12.434 15.644-24.406 20.086-39.41 3.3-10.11 7.768-19.895 12.164-29.567l-2.117-.586-2.758-.789-2.742-.773C132 154 132 154 130 152l2.16.363c7.69 1.288 15.388 2.534 23.09 3.762L167 158c-1.072 2.169-2.166 4.29-3.367 6.39-4.44 8.421-5.93 16.563-7.164 25.943-1.066 7.706-2.482 15.403-8.594 20.73C145 213 145 213 143 213l2 7-3-1c-1.125-4.75-1.125-4.75 0-7h2l1-3 1.93-.937c3.371-1.73 3.923-4.34 5.21-7.77 1.043-3.993 1.394-7.878 1.735-11.98.887-10.45 3.753-19.817 10.125-28.313l-20-3c-3.086 7.642-6.151 15.289-9.062 23l-.761 2.011c-1.216 3.257-2.364 6.517-3.384 9.84-4.135 13.36-10.937 24.243-18.936 35.557-6.473 9.172-10.823 16.766-9.341 28.264.816 3.922 2.684 7.008 4.734 10.39C108 268 108 268 107 273l-11-2-1-3h-2a82 82 0 0 1-2.625-4.687C87.365 258.082 84.279 255.7 79 253l-3-2c.125-2.25.125-2.25 1-5 5.081-4 5.081-4 8-4v-3h2c1.45-5.336 2.858-10.637 3.586-16.125 1.24-9.098 3.261-15.494 8.574-23.043 2.995-4.61 4.036-9.447 5.153-14.77 1.134-5.064 2.562-9.914 4.25-14.812 4.887-12.915 4.887-12.915 3.574-26.164-1.006-1.72-2.07-3.404-3.137-5.086-1.697-4.526-1.544-9.401 0-13.937z"/><path fill="#79B6A8" d="M183 122c5.158 1.418 9.8 3.674 14 7v2l2.11.707c3.445 1.541 6.211 3.645 9.14 5.98l3.434 2.7 1.694 1.341c2.997 2.35 6.059 4.618 9.11 6.897L224 150v2l1.7.719c11.23 6.253 20.302 20.286 24.3 32.281.749 6.913-.097 12.188-4 18l-2 2h-3l.324-2.492c1.548-14.409-3.253-26.013-12.25-37.285C214.24 147.077 214.24 147.077 195 135a279 279 0 0 1-5-5 308 308 0 0 0-5.645-4.668L183 124z"/><path fill="#79B6A8" d="M160 117c7.322 1.302 12.182 5.584 18 10a849 849 0 0 0 7.375 5.313l1.766 1.273c2.539 1.82 5.06 3.53 7.773 5.082L197 140v2l1.672.707c2.94 1.633 5.119 3.686 7.578 5.98 3.227 3.002 6.478 5.94 9.875 8.75 9.796 8.57 18.853 20.538 20.21 33.86.148 13.026-3.37 21.255-12.335 30.703-7.514 7.134-15.928 12.165-25 17l-2.14 1.176C184.432 246.74 167.141 255 153 255v-2l2.816-1.39c7.817-3.836 7.817-3.836 15.434-8.048C174 242 174 242 176 242l1-3a259 259 0 0 1 5-3c8.378-6.034 13.76-14.467 16.688-24.312C200.19 198.753 196.748 189 190 178l-1.75-2.133L187 174l1-3c8.498 12.602 16.222 24.402 13.406 40.367C196.595 228.995 183.912 238.952 169 248c17.95-2.601 39.699-14.267 52.145-27.234C223 219 223 219 225 219l.75-1.562C227 215 227 215 228.938 211.875c4.563-8.063 6.075-15.779 4.062-24.875-2.955-9.524-7.829-17.01-14.937-23.937L216 161v-2l-1.687-.707c-2.902-1.622-4.927-3.66-7.313-5.98-13.132-12.402-28.405-22.793-43.75-32.25L160 118z"/><path fill="#0894F9" d="M120.887 97.328c2.81.894 4.183 2.494 6.113 4.672l-1.758 1.871c-4.462 4.838-8.48 9.623-11.953 15.219-1.27 1.883-2.632 3.364-4.289 4.91-1.82-.9-3.632-1.82-5.437-2.75-1.01-.51-2.02-1.02-3.06-1.547C98 118 98 118 97.154 115.797L97 114l1.941-1.469c4.398-3.408 8.253-6.581 11.621-11.031 3.15-3.792 5.482-4.344 10.325-4.172"/><path fill="#20393D" d="M235 48h4c3.662 7.567 3.422 14.48 1.016 22.387-1.214 3.122-2.817 5.651-4.703 8.402-1.615 2.72-2.614 5.487-3.688 8.461-3.714 10.027-9.176 19.967-16.625 27.75h-2v2c-3.182 1.591-5.458 1.337-9 1-3.204-1.346-6.067-3.146-9-5l-2.703-1.645C186.223 107.598 180.542 103.502 175 99l-.82 2.27c-1.118 2.587-2.222 4.305-4.055 6.418l-1.492 1.761C167 111 167 111 165.008 111.793c-3.118 1.874-3.842 4.55-5.258 7.832l-1.578 3.602L157 126c-5.75-.75-5.75-.75-8-3h7l1.102-2.703C161.833 109.28 161.833 109.28 168 106c2.949-2.932 5.373-6.154 7-10 3.173 1.398 5.19 3.055 7.625 5.5 4.495 4.082 9.368 7.082 14.625 10.063l2.366 1.374c4.346 2.412 4.346 2.412 9.185 3.083 8.056-3.735 12.44-13.47 16.199-21.02l1.41-2.676c1.926-3.7 3.679-7.21 4.715-11.261.91-3.187 1.539-3.913 3.875-6.063 4.91-7.744 4.267-16.269 3-25-3.647 2.268-4.679 4.064-5.75 8.188l-.734 2.73L231 63h-2l-2-6v11h-2c-.953-4.763-1.083-9.167-1-14h4l2 2 1.375-2.875C233 50 233 50 235 48"/><path fill="#7DB9AB" d="M136 49v4l-1.887.707c-7.22 2.85-14.1 6.222-20.988 9.793l-2.737 1.402C105.433 67.5 100.988 70.044 97 74c-.6 4.281-.347 7.332 2 11-3.423-2.14-4.81-3.293-5.875-7.25 1.34-5.741 5.28-8.276 9.875-11.75 3.852-2.374 7.825-4.425 11.875-6.437l3.125-1.6c7.4-3.763 7.4-3.763 11-4.963-20.746 1.475-47.107 5.107-62.5 20.5-2.267 3.778-2.96 6.378-2.012 10.754C68.104 95.204 77.393 102.292 87 108l-2 2c-10.044-6.993-17.5-13-23-24-.52-4.737-.526-8.78 1.375-13.187C79.306 55.743 113.328 48.373 136 49"/><path fill="#0092FF" d="M208 141c3.665 1.599 6.444 3.88 9.5 6.438 3.841 3.215 3.841 3.215 7.844 6.222L227 155v2l1.664.633c9.473 5.544 16.935 18.477 20.02 28.613.997 5.276-.46 9.06-2.684 13.754l-2 1 .125-3.437C243.941 179.99 232.805 166.017 221 154c-3.455-3.362-7.005-6.608-10.613-9.805L208 142z"/><path fill="#243E43" d="m86 109 2 1-1.25 3.75-.82 2.492q-.956 2.834-1.985 5.64C81.531 128.633 80.282 134.836 80 142c2.936-1.036 3.847-1.695 5.266-4.531l.984-2.969 1.016-2.969c.827-2.412.827-2.412.734-4.531h2l2 5h1l-.105-2.633c-.27-11.446-.27-11.446 3.105-16.367h3l-.96 1.73c-1.062 2.319-1.42 4.074-1.673 6.598l-.254 2.422-.238 2.5-.262 2.547q-.315 3.1-.613 6.203h-6c-1.18 1.768-1.18 1.768-2.312 3.938-2.333 3.936-2.333 3.936-5.5 5.062H79c-2.756-5.511-1.162-12.074.64-17.661A371 371 0 0 1 83 117l1-2.738A352 352 0 0 1 86 109"/><path fill="#1E373C" d="m185 170 2 1-2 4-1.266 2.656c-2.384 4.597-5.177 8.893-7.974 13.246-6.524 10.277-10.538 18.982-8.346 31.453.477 1.896 1.027 3.772 1.586 5.645q.51 1.998 1 4c-4.296-3.71-5.642-8.89-6.273-14.375-.506-13.075 6.46-22.974 13.273-33.625a755 755 0 0 0 3.375-5.562l1.398-2.317A95 95 0 0 0 185 170"/><path fill="#264247" d="M235 48h4c1.203 2.405 1.1 3.95 1.063 6.625l-.028 2.477L240 59h-1l-1-9c-3.647 2.268-4.679 4.064-5.75 8.188l-.734 2.73L231 63h-2l-2-6v11h-2c-.953-4.763-1.083-9.167-1-14h4l2 2 1.375-2.875C233 50 233 50 235 48"/><path fill="#1E363B" d="m175 96 4 2-1.875.188L175 99a306 306 0 0 0-2 5c-4.678 6.474-4.678 6.474-7.992 7.793-3.118 1.874-3.842 4.55-5.258 7.832l-1.578 3.602L157 126c-5.75-.75-5.75-.75-8-3h7l1.102-2.703C161.833 109.28 161.833 109.28 168 106c2.949-2.932 5.373-6.154 7-10"/><path fill="#77B5A7" d="M202 137c2.813.688 2.813.688 6 2l1.344 2.254c1.976 3.276 4.488 5.519 7.344 7.996 5.17 4.6 9.857 9.443 14.312 14.75l-1 3-1.477-1.95c-7.126-9.082-15.294-17.245-24.445-24.304L202 139z"/><path fill="#233E43" d="M117 73a53.4 53.4 0 0 1-7.437 3.188C105.039 78.489 103.65 80.742 101 85l-2-1a394 394 0 0 1 3.25-4.937l1.828-2.778C107.641 72.048 111.728 72.9 117 73"/><path fill="#3C706D" d="m159 116 2 1-4 9c-5.75-.75-5.75-.75-8-3h7z"/><path fill="#5EADB9" d="M202 137c2.813.625 2.813.625 6 2 1.875 3.125 1.875 3.125 3 6-3.438-1.528-6.19-3.502-9-6z"/><path fill="#274247" d="m86 109 2 1q-.68 2.159-1.375 4.313l-.773 2.425C85 119 85 119 83 122c.549-4.571 1.417-8.674 3-13"/><path fill="#233F44" d="M124 96h7l-2 5c-2.5-1.375-2.5-1.375-5-3z"/></svg>